# xmcd
#
# Track frame offsets:
#	150
#	9148
#	19387
#	30065
#	41997
#	54017
#	64296
#	74911
#	87570
#	98440
#	110452
#	122395
#	134954
#	146788
#	157216
#	168493
#	180020
#	191715
#	200972
#	214329
#
# Disc length: 2991 seconds
# Revision: 0
# Processed by: cddbd v1.5.2PL0 Copyright (c) Steve Scherf et al.
# Submitted via: dBpowerAMP V12.0
#
DISCID=280bad14
DTITLE=Earl King - Come On
DYEAR=1960
DGENRE=Blues
TTITLE0=Come On Part 2
TTITLE1=You Can Fly High
TTITLE2=Mother Told Me Not To Go
TTITLE3=Well o Well o Well o Baby
TTITLE4=You're More To Me Than Gold
TTITLE5=Old Faithful And Rue Love
TTITLE6=Ill Never Get Tired
TTITLE7=Ill Take You Back Home
TTITLE8=My Love Is Strong
TTITLE9=Someone Who Cares
TTITLE10=Those Lonely Lonely Feelings
TTITLE11=Is Everything Alright
TTITLE12=Dont Take It So Hard
TTITLE13=A Mothers Love
TTITLE14=Dont You Know Youre Wrong
TTITLE15=I Get So Happy
TTITLE16=It Must Have Been Love
TTITLE17=Funny Face
TTITLE18=I Met A Stranger
TTITLE19=Buddy Its Time To Go
EXTD=
EXTT0=
EXTT1=
EXTT2=
EXTT3=
EXTT4=
EXTT5=
EXTT6=
EXTT7=
EXTT8=
EXTT9=
EXTT10=
EXTT11=
EXTT12=
EXTT13=
EXTT14=
EXTT15=
EXTT16=
EXTT17=
EXTT18=
EXTT19=
PLAYORDER=
